<svg width="1672" height="1672" viewBox="0 0 1672 1672" fill="none" xmlns="http://www.w3.org/2000/svg">
<circle cx="836" cy="836" r="836" fill="#FDEA6B"/>
<mask id="mask0_6_19110" style="mask-type:alpha" maskUnits="userSpaceOnUse" x="0" y="0" width="1672" height="1672">
<circle cx="836" cy="836" r="836" fill="white"/>
</mask>
<g mask="url(#mask0_6_19110)">
<rect x="848.748" y="1139.03" width="293.949" height="361.98" fill="#BAD9DB"/>
<path fill-rule="evenodd" clip-rule="evenodd" d="M763.011 784.97C794.697 760.842 874.246 749.992 908.065 773.224C941.467 796.554 945.108 834.281 960.674 868.987C975.359 862.062 999.612 871.98 1003.87 885.607C1009.15 892.034 1009.39 910.091 1013.03 918.731C1171.48 943.953 1195.54 1067.49 1214.61 1207.73C1239.84 1350.05 1297.12 1492.05 1272.25 1638.49C1275.49 1643.18 1278.05 1647.74 1280.41 1653.15C1286.07 1662.78 1278.78 1676.41 1267.36 1675.88C1252.59 1674.58 1237.96 1672.81 1223.11 1672.26C1181.96 1670.83 1140.77 1671 1099.6 1671.52L1093.99 1671.6C886.513 1674.18 679.049 1679.27 471.565 1680.62C464.038 1680.63 460.353 1673.88 461.358 1667.22C463.382 1653.81 465.26 1640.4 467.22 1626.98C418.145 1639.95 365.973 1643.21 317.037 1628.35C313.613 1624.86 325.013 1626.75 326.822 1626.22C281.785 1595.45 295.234 1530.61 299.224 1483.92C324.031 1323.91 332.776 1146.88 428.623 1010.35C470.088 954.626 530.878 910.511 600.732 900.584L602.67 900.319C623.095 897.596 645.858 896.718 663.716 885.607C683.801 869.573 692.36 839.946 713.491 839.669C720.468 839.577 729.96 848.404 740.174 854.397C740.936 841.214 748.041 830.088 749.61 819.866L749.737 818.992C751.374 807.075 749.132 796.353 763.011 784.97ZM1103.54 1211.96C1059.01 1181.03 943.981 1196.57 941.348 1198.3C935.55 1202.11 933.053 1202.45 929.917 1207.4C926.821 1207.81 923.727 1208.24 920.636 1208.68C914.435 1210.71 919.031 1218.33 926.193 1215.61C921.885 1234.19 934.563 1247.4 939.611 1265.77C941.25 1271.74 939.67 1282.46 939.611 1288.56C940.1 1296.33 948.691 1305.5 947.259 1313.3C942.169 1341.01 914.548 1368.04 926.193 1394.92C933.908 1410.1 957.11 1417.84 972.537 1423C1004.5 1435.26 1060.19 1422.53 1078.76 1394.92C1088.66 1380.19 1100.14 1343.03 1106.04 1331.5L1107.35 1313.22C1110.58 1267.77 1113.45 1218.85 1103.54 1211.96Z" fill="#D08B5B"/>
<path fill-rule="evenodd" clip-rule="evenodd" d="M711.843 839.752L724.587 847.572L798.598 884.158C812.946 888.175 820.12 892.99 820.12 898.602V955.748C820.12 963.395 833.585 980.727 860.514 1007.74L885.392 982.941L884.836 979.694C882.469 965.702 881.285 956.342 881.285 951.615C881.285 946.531 905.625 927.231 954.304 893.716L975.6 873.666L973.33 866.76C986.461 867.381 1000.7 875.467 1003.87 885.608C1009.15 892.035 1009.39 910.092 1013.03 918.732C1171.48 943.954 1195.54 1067.49 1214.61 1207.73C1239.84 1350.05 1297.12 1492.05 1272.25 1638.49C1275.49 1643.18 1278.05 1647.74 1280.41 1653.15C1286.07 1662.78 1278.78 1676.41 1267.36 1675.88C1252.59 1674.58 1237.96 1672.81 1223.11 1672.26C1181.96 1670.83 1140.77 1671 1099.6 1671.52L1093.99 1671.6C886.513 1674.18 679.049 1679.27 471.565 1680.62C464.038 1680.63 460.353 1673.88 461.358 1667.22C463.382 1653.81 465.26 1640.4 467.22 1626.98C418.145 1639.95 365.973 1643.21 317.037 1628.35C313.613 1624.86 325.013 1626.75 326.822 1626.22C281.785 1595.45 295.234 1530.61 299.224 1483.92C324.031 1323.91 332.776 1146.88 428.623 1010.35C470.088 954.626 530.878 910.511 600.732 900.585L602.67 900.32L604.622 900.065C624.535 897.53 646.425 896.366 663.716 885.608C683.271 869.997 691.9 841.501 711.843 839.752ZM889.184 1175.17C881.925 1175.17 867.058 1186.44 844.584 1208.99L842.604 1209.9C815.437 1222.52 797.439 1233.47 788.611 1242.74L788.296 1243.08C779.378 1252.64 761.717 1278.09 735.314 1319.4L697.08 1342.01H682.613L672.313 1416.72L697.08 1470.07L753.179 1451.17L844.584 1427.08L897.035 1373.87L926.623 1363.93C923.033 1374.3 921.732 1384.62 926.193 1394.92C933.908 1410.1 957.11 1417.84 972.537 1423C1004.5 1435.26 1060.19 1422.54 1078.76 1394.92C1088.66 1380.19 1100.14 1343.03 1106.04 1331.5L1107.74 1307.75C1110.79 1263.93 1113.06 1218.57 1103.54 1211.96C1059.01 1181.03 943.981 1196.57 941.348 1198.3C935.55 1202.11 933.053 1202.45 929.917 1207.4L928.294 1207.62L937.422 1195.24L934.19 1193.52C911.126 1181.28 896.124 1175.17 889.184 1175.17ZM926.193 1215.61C922.069 1233.4 933.513 1246.27 938.925 1263.45L925.096 1236.98L925.096 1215.96C925.454 1215.87 925.82 1215.75 926.193 1215.61Z" fill="#283138"/>
<path fill-rule="evenodd" clip-rule="evenodd" d="M705.733 836.989C708.807 834.267 713.356 837.687 711.403 841.365C707.013 849.63 702.51 857.462 696.618 864.768C693.046 869.198 689.219 873.387 685.341 877.531C695.293 886.14 703.828 896.829 711.888 906.846C722.194 919.658 731.938 933.013 743.507 944.736C754.917 956.298 767.533 964.38 782.787 969.769L785.868 970.839C801.192 976.219 817.571 983.484 826.208 997.993C827.912 1000.85 824.482 1004.39 821.599 1002.6C806.589 993.311 788.954 991.442 772.616 985.301C756.834 979.369 743.076 970.24 730.92 958.589C718.785 946.957 708.595 933.723 697.967 920.768C687.457 907.959 676.14 897.019 663.709 886.181C644.524 899.087 622.626 904.703 600.359 910.219L597.928 910.82C575.634 916.34 553.46 922.75 532.545 932.362C514.104 940.835 495.967 950.954 480.946 964.743C465.001 979.376 452.591 998.065 441.232 1016.34C415.824 1057.23 397.961 1102.03 382.235 1147.37C365.88 1194.54 352.199 1242.64 341.154 1291.32C335.537 1316.08 330.975 1341.02 327.226 1366.13C325.421 1378.23 323.818 1390.35 322.41 1402.49C320.907 1415.46 320.561 1428.81 316.582 1441.28C314.876 1446.63 310.848 1448.84 306.816 1448.66L305.997 1458.9C304.912 1472.55 303.899 1486.21 303.557 1499.95C302.99 1522.8 303.247 1545.58 304.891 1568.37L305.123 1571.48C306.415 1588.12 309.3 1606.82 321.812 1619C334.768 1631.62 354.694 1635.58 372.158 1635.81C412.832 1636.34 451.985 1617.12 487.977 1600.26C525.046 1582.9 561.101 1563.63 596.293 1542.72C614.215 1532.08 631.943 1521.08 649.445 1509.76C658.034 1504.2 666.562 1498.55 675.026 1492.81C679.874 1489.52 684.469 1485.92 689.404 1483C686.986 1480.75 685.906 1477.21 687.932 1474.12C673.664 1461.73 667.726 1439.63 667.032 1421.75C666.471 1407.32 668.595 1392.92 670.272 1378.62C671.118 1371.41 672.162 1364.22 673.247 1357.04C673.676 1354.2 674.003 1351.17 674.504 1348.18C635.979 1369.35 596.374 1388.2 555.72 1404.95C534.882 1413.54 513.777 1421.26 492.38 1428.33L488.043 1429.76C467.77 1436.39 447.012 1442.66 426.053 1446.46C424.932 1446.66 424.022 1445 425.219 1444.48C445.644 1435.46 466.776 1427.86 487.508 1419.56L490.914 1418.18V1418.18C490.523 1418.15 490.117 1418.1 489.694 1418C477.535 1415.06 465.472 1410.54 453.547 1406.73C442.479 1403.2 430.045 1400.98 419.7 1395.65C418.905 1395.24 419.35 1394.13 420.125 1394.08C431.752 1393.27 444.374 1396.66 455.774 1398.65L460.056 1399.4C467.231 1400.67 474.564 1402.03 481.703 1403.8C481.961 1401.41 483.297 1399.01 485.198 1397.6C506.117 1382.11 503.993 1350.82 506.23 1327.75L507.889 1310.62C510.808 1280.64 513.895 1250.66 518.585 1220.91C518.836 1219.32 521.294 1219.77 521.304 1221.27C521.546 1258.16 518.761 1294.87 517.366 1331.7L517.15 1337.74C516.378 1360.46 515.774 1384.06 501.462 1401.55C503.463 1400.38 506.169 1400.38 507.79 1402.3C509.782 1404.67 510.932 1407.34 510.896 1409.95C523.829 1404.53 536.705 1398.96 549.518 1393.29C590.713 1375.04 631.044 1354.61 670.309 1332.51C674.535 1330.14 678.551 1332.01 680.641 1335.14L680.942 1335.1C680.993 1335.09 681.044 1335.09 681.096 1335.08L681.396 1335.07C681.407 1335.07 681.419 1335.07 681.429 1335.07C686.956 1332.04 694.486 1334.2 699.229 1338.63C699.369 1338.76 699.488 1338.91 699.613 1339.05C705.617 1336.35 711.224 1332.71 716.313 1328.1C726.725 1318.66 735.545 1306.99 743.234 1295.29C757.394 1273.74 769.421 1249.77 788.548 1232.03C804.089 1217.62 823.356 1208.65 843.569 1203.01C843.484 1202.42 843.71 1201.79 844.119 1201.37C845.157 1200.31 845.898 1199.94 847.239 1200.59C847.346 1200.64 847.41 1200.71 847.453 1200.79L849.426 1197.42C850.503 1195.59 851.608 1193.75 851.991 1193.26C854.286 1190.37 856.648 1187.51 859.046 1184.7C863.111 1179.95 867.744 1175.26 873.108 1171.96C884.853 1164.74 897.2 1168.83 909.275 1172.77C916.571 1175.15 923.843 1177.62 931.126 1180.03L931.877 1180.28C937.308 1182.03 943.663 1183.55 946.092 1189.31C947.053 1191.58 947.202 1193.95 946.754 1196.24C998.335 1183.12 1055.63 1189.15 1105.96 1204.55C1107.89 1205.14 1109.82 1206.73 1110.23 1208.81C1116 1238.39 1118.56 1268.72 1115.95 1298.8C1113.7 1324.76 1107.95 1350.21 1097.11 1373.98L1096.49 1375.32C1086.3 1397.35 1070.15 1424.51 1045.49 1431.41C1030.6 1435.58 1014.13 1433.13 998.944 1432.36C984.183 1431.62 969.096 1431.51 954.475 1429.19C941.454 1427.12 930.045 1421.29 921.998 1410.7C915.057 1401.57 911.401 1390.53 908.406 1379.55C907.035 1379.98 905.673 1380.45 904.333 1380.97C898.676 1383.18 893.883 1386.75 889.55 1390.94C880.399 1399.8 873.3 1410.57 863.726 1419.02C855.059 1426.68 845.183 1432.63 834.589 1437.21C812.637 1446.69 789.089 1450.48 765.869 1455.51L764.249 1455.86C746.769 1459.7 728.927 1464.41 713.498 1473.51C713.196 1476.19 711.975 1478.71 710.019 1480.36C712.74 1482.92 713.893 1486.96 711.502 1490.76C704.822 1501.36 693.316 1507.39 682.987 1514.17L682.315 1514.62C672.154 1521.35 661.904 1527.95 651.571 1534.42C630.564 1547.57 609.119 1560 587.37 1571.88C552.391 1590.99 516.66 1609.02 480.282 1625.37C482.466 1636.11 481.668 1647.19 483.309 1658L483.56 1659.54C484.261 1663.56 483.314 1666.92 480.55 1669.54L480.258 1669.81L480.263 1669.77L480.004 1670.01L479.917 1670.08L479.946 1670.06C479.627 1670.35 479.298 1670.62 478.963 1670.85L478.536 1671.13V1671.13C475.874 1672.75 472.446 1672.73 469.72 1671.3L469.409 1671.13L468.885 1670.83C465.283 1668.76 462.799 1663.62 464.293 1659.54C467.966 1649.52 469.353 1638.83 472.745 1628.74L470.054 1629.94V1629.94L466.508 1631.49C428.156 1648.07 385.555 1662.03 343.768 1650.73C325.304 1645.73 308.047 1635.16 298.809 1617.94C289.719 1600.98 288.434 1581.3 287.951 1562.44C287.355 1539.17 288.603 1515.54 291.672 1492.47C293.732 1476.98 296.224 1461.2 300.067 1445.87C298.09 1444.13 296.637 1441.63 296.254 1438.53C294.44 1423.89 297.614 1408.67 299.558 1394.1C301.456 1379.88 303.553 1365.69 305.926 1351.54C310.715 1322.97 316.279 1294.46 322.758 1266.22C334.287 1215.97 349.512 1166.61 367.842 1118.43L369.447 1114.23C386.385 1070.19 405.997 1027.09 433.305 988.4C446.369 969.89 460.178 953.108 478.636 939.77C495.929 927.272 515.435 918.274 535.565 911.397C555.716 904.514 576.429 899.902 597.507 897.033C618.914 894.119 641.51 892.332 661.479 883.552C658.953 879.024 661.121 872.91 665.372 870.101C679.679 860.649 692.91 848.352 705.733 836.989ZM1163.74 1248.03C1164.33 1247.12 1165.76 1247.7 1165.5 1248.77C1158.54 1277.28 1152 1305.85 1147.74 1334.9C1140.04 1387.33 1141.46 1440.45 1142.08 1493.28L1142.12 1496.01C1142.44 1524.46 1142.89 1552.92 1143.83 1581.36C1144.31 1595.73 1145.24 1610.25 1144.73 1624.63C1144.46 1632.43 1142.38 1639.81 1141.64 1647.52C1140.99 1654.26 1141.57 1661.1 1141.89 1667.85C1142.11 1672.34 1135.48 1672.15 1135.03 1667.85L1134.46 1662.3C1133.71 1655.26 1132.78 1648.27 1130.48 1641.54C1127.71 1633.45 1126.38 1625.5 1125.42 1617C1123.94 1603.97 1123.29 1590.81 1122.72 1577.7L1122.33 1568.63C1119.96 1513.81 1120.04 1458.74 1123.88 1403.98L1124.16 1400.07C1127.97 1348.31 1134.57 1292.38 1163.74 1248.03ZM1015.41 921.804C1013.59 921.057 1014.23 918.308 1016.24 918.787L1019.9 919.66C1046.72 926.084 1073.05 933.045 1098.09 944.999C1123.14 956.959 1144.35 974.816 1161.2 996.773C1193.95 1039.46 1207.57 1091.33 1218.31 1143.15C1230.26 1200.73 1241.13 1258.53 1253.18 1316.09L1255.41 1326.82C1266.56 1380.43 1277.09 1434.08 1284.84 1488.33L1285.4 1492.27C1293.22 1548.05 1297.92 1605.77 1289.39 1661.71C1287.7 1672.77 1269.28 1670.02 1270.01 1659.08C1272.08 1627.48 1273.57 1596.04 1272.13 1564.36C1270.69 1532.68 1267.72 1501.13 1263.29 1469.73C1259.57 1443.3 1254.01 1417.19 1249.09 1390.97L1248.32 1386.83C1244.2 1364.53 1239.96 1342.25 1235.72 1319.97L1229.39 1286.61C1219.9 1236.66 1210.23 1186.67 1199.3 1137.04L1198.65 1134.12C1187.96 1086.36 1172.19 1036.34 1140.1 998.419C1107.54 959.935 1060.93 940.554 1015.41 921.804ZM897.1 1428.32C897.883 1426.57 900.622 1426.76 901.464 1428.32C904.763 1434.4 905.13 1442.17 905.754 1449.05L905.819 1449.75C906.613 1458.14 907.315 1466.55 907.745 1474.97C908.56 1490.93 908.95 1506.88 908.9 1522.87C908.849 1539.25 908.519 1555.62 907.636 1571.98L907.396 1576.36C906.59 1590.58 905.238 1606.43 898.482 1618.86C896.027 1623.38 889.348 1622.05 887.926 1617.48C883.266 1602.52 885.659 1584.78 886.854 1569.46L887.782 1557.5C888.701 1545.54 889.577 1533.58 890.272 1521.61C891.225 1505.23 892.01 1488.83 892.766 1472.45C893.012 1467.12 893.277 1461.8 893.558 1456.48L893.99 1448.49C894.358 1441.82 894.327 1434.49 897.1 1428.32ZM373.194 1449.52L375.256 1447.53C381.588 1441.33 389.59 1431.79 398.951 1432.38C402.684 1432.62 405.062 1435.72 404.288 1439.39C402.635 1447.24 394.627 1451.31 388.862 1456.11C382.546 1461.35 376.594 1466.97 370.654 1472.63C365.383 1477.65 360.315 1482.82 355.368 1488.14L353.519 1490.15C351.745 1492.08 339.118 1503.51 340.484 1506.47L340.558 1506.6C340.938 1507.17 340.305 1507.95 339.675 1507.75C334.222 1506.03 334.562 1501.35 336.624 1496.62C340.585 1487.52 347.522 1479.1 353.579 1471.33C359.62 1463.58 366.159 1456.37 373.194 1449.52V1449.52ZM916.859 1221.35C912.642 1211.39 897.109 1211.6 888.29 1212.19C866.084 1213.69 842.057 1219.31 822.298 1229.69C801.814 1240.45 788.015 1257.69 775.668 1276.76L775.091 1277.65C763.057 1296.36 751.467 1318.5 732.623 1331.37C723.026 1337.92 711.819 1343.9 700.174 1346.49C699.374 1347.9 698.079 1349.01 696.381 1349.42L695.591 1349.6C692.274 1350.33 687.122 1351.14 682.671 1350.65C682.701 1352.83 682.678 1354.99 682.733 1357.05C682.89 1362.97 682.956 1368.9 682.956 1374.82C682.959 1387.21 682.293 1399.63 682.81 1412.02C683.268 1422.98 684.816 1434.43 690.079 1444.23C693.939 1451.42 699.034 1456.18 705.184 1460.72C720.312 1451.5 737.419 1445.88 754.781 1441.65C775.779 1436.54 797.278 1433.13 817.798 1426.2C827.674 1422.87 837.169 1418.5 845.772 1412.57C854.902 1406.28 861.876 1397.76 869.052 1389.43L870.173 1388.13C877.496 1379.73 885.486 1371.7 895.836 1367.14C904.748 1363.22 916.494 1362.52 924.287 1356.45C928.361 1353.28 928.703 1348.67 929.131 1343.95C924.141 1344.67 918.857 1343.52 913.883 1342.94L911.306 1342.64C906.603 1342.08 902.007 1341.46 897.377 1340.27C896.517 1340.04 896.517 1338.75 897.377 1338.53C902.849 1337.11 908.273 1336.51 913.883 1335.85L915.201 1335.69C920.277 1335.02 925.612 1334.02 930.591 1335.14C931.484 1331.74 932.774 1328.49 934.584 1325.24C937.124 1320.68 941.932 1315.5 942.581 1310.17C942.775 1308.57 942.404 1306.69 941.653 1305.29L941.394 1304.81C941.079 1304.24 940.705 1303.67 940.158 1303.32C940.097 1303.39 939.969 1303.47 939.69 1303.55C935.859 1304.76 932.516 1302.89 930.742 1300C923.211 1300.93 914.992 1300.62 907.93 1300.93L900.789 1301.27C893.159 1301.62 885.182 1301.78 878.013 1300.23C877.011 1300.02 876.708 1298.35 877.711 1297.93C886.525 1294.16 897.218 1292.95 906.655 1291.5C911.926 1290.69 917.235 1290.08 922.521 1289.37C926.04 1288.89 929.776 1288.11 933.423 1287.92C942.566 1276.54 937.639 1258.58 924.915 1253.68C920.28 1255.72 916.112 1254.53 911.048 1254.1C905.993 1253.66 900.925 1253.37 895.85 1253.39C885.68 1253.44 874.902 1256.11 864.831 1254.96C863.193 1254.77 861.671 1252.59 863.3 1251.26C871.009 1244.97 882.058 1242.92 891.843 1241.58L893.872 1241.31C897.153 1240.88 901.142 1240.25 905.28 1239.88C906.216 1238.05 907.895 1236.67 910.417 1236.33C911.167 1236.23 911.921 1236.16 912.673 1236.1L912.661 1236.03V1236.03C918.812 1235.73 918.545 1225.34 916.859 1221.35ZM495.743 1415.73C495.635 1415.89 495.516 1416.05 495.389 1416.21L495.194 1416.43L496.205 1416.02L495.743 1415.73V1415.73ZM1024.2 1199.09C998.307 1196.3 972.379 1196.89 946.411 1197.64C944.335 1204.43 937.105 1210.22 930.101 1210.44C935.587 1218.79 936.153 1230.09 932.306 1238.94C940.473 1242.2 947.51 1248.04 951.782 1256.35C957.706 1267.88 956.931 1280.72 951.076 1291.37C956.073 1295.9 959.022 1303.24 958.727 1310.17C958.397 1317.89 953.795 1324.48 949.971 1330.87C945.839 1337.79 945.7 1343.87 944.431 1351.62C942.573 1362.95 934.931 1369.82 925.097 1374.11L925.62 1376.17C928.155 1386.04 931.31 1396.45 938.556 1403.67C947.877 1412.95 962.338 1412.87 974.654 1413.45L975.248 1413.48C986.525 1414.05 997.798 1414.71 1009.07 1415.35L1017.53 1415.82C1030.51 1416.53 1042.97 1416.62 1053.57 1408.04C1070.87 1394.03 1082.73 1370.85 1090.23 1350.33C1105.99 1307.26 1106.18 1259.99 1098.95 1215.13C1074.69 1207.31 1049.53 1201.81 1024.2 1199.09ZM808.885 1270.55L809.075 1270.56C814.406 1271.17 818.068 1275.49 819.372 1280.61C821.267 1288.05 820.338 1294.78 824.896 1301.5C829.585 1308.4 832.468 1313.93 833.149 1322.47C833.429 1325.98 833.301 1329.48 834.083 1332.92L834.649 1335.33C835.251 1337.9 835.744 1340.37 835.445 1343.13C835.171 1345.64 833.947 1347.6 831.424 1348.41C823.205 1351.04 816.859 1344.98 814.736 1337.32C812.902 1330.71 815.351 1322.82 812.763 1316.61C811.329 1313.17 808.685 1310.29 807.191 1306.82C805.711 1303.38 804.968 1299.79 804.73 1296.06C804.28 1288.99 810.528 1280.5 807.042 1274.1C806.3 1272.74 807.14 1270.5 808.885 1270.55ZM699.71 1197.64C705.275 1196.51 711.589 1193.92 717.078 1196.07C719.9 1197.18 721.294 1200.62 718.91 1203.01C714.771 1207.16 708.756 1207.39 703.182 1208.37L702.691 1208.46C696.1 1209.68 689.497 1210.83 682.885 1211.93C670.446 1213.99 657.977 1215.81 645.464 1217.36C632.612 1218.95 619.725 1220.37 606.819 1221.43L601.823 1221.84C590.922 1222.71 579.578 1223.37 568.882 1221.7C567.327 1221.46 567.578 1219.19 568.882 1218.8C580.6 1215.25 593.454 1214.3 605.569 1212.8C618.449 1211.2 631.307 1209.51 644.131 1207.51C656.936 1205.51 669.723 1203.37 682.463 1200.99C688.221 1199.92 693.971 1198.8 699.71 1197.64ZM900.538 1186.25C895.653 1184.52 890.28 1181.96 884.988 1182.82C875.861 1184.3 867.738 1193.19 860.514 1199.04L864.142 1198.34C882.702 1194.77 907.281 1190.93 922.861 1202.73C922.901 1202.66 922.932 1202.59 922.976 1202.53C924.234 1200.62 925.691 1199.12 927.282 1197.49C927.434 1197.35 927.581 1197.2 927.725 1197.05L928.583 1196.14L926.621 1195.46C922.417 1193.97 917.437 1192.05 916.65 1191.77L916.596 1191.75C911.236 1189.94 905.871 1188.14 900.538 1186.25ZM748.041 797.22C747.278 787.396 762.567 787.477 763.324 797.22C764.976 818.489 760.19 839.557 749.887 858.204C749.812 858.34 749.728 858.461 749.648 858.589C756.092 861.942 762.609 865.159 769.271 868.034C777.793 871.713 786.475 875.063 795.313 877.905C803.308 880.478 813.157 881.493 819.878 886.846C834.05 898.131 828.726 921.552 825.999 936.734L825.574 939.13C824.217 946.942 823.235 954.957 826.528 962.455C830.045 970.463 837.158 976.404 843.503 982.134L844.784 983.296C850.405 988.417 856.828 994.639 860.951 1001.58C864.715 993.799 869.845 987.44 875.27 980.282C879.14 975.173 876.385 973.489 873.605 968.498C870.929 963.695 869.622 958.574 870.459 953.095C872.003 942.975 880.091 935.664 888.142 930.172C897.65 923.688 908.261 918.885 918.09 912.853C938.286 900.461 957.955 886.293 975.676 870.557C976.165 870.122 977.012 870.691 976.62 871.286C962.623 892.577 946.209 910.975 926.037 926.592C917.857 932.924 909.265 938.177 900.615 943.698L898.128 945.294C894.655 947.544 890.323 950.551 888.753 954.381C887.173 958.233 890.542 961.142 892.356 964.333C898.116 974.466 895.337 983.921 888.509 992.515L888.191 992.911C881.406 1001.27 876.263 1009.05 873.804 1019.73C868.519 1042.68 875.88 1066.58 883.585 1088.12L883.889 1088.97C888.057 1100.58 892.487 1112.11 896.108 1123.91L897.104 1127.17C900.385 1138.03 903.072 1148.73 899.392 1159.89C898.14 1163.69 892.963 1164.58 890.813 1161.01C883.228 1148.41 881.337 1133.25 876.583 1119.4C871.949 1105.91 866.628 1092.65 862.153 1079.1C856.389 1061.65 852.532 1042.86 854.625 1024.56C854.564 1024.45 854.496 1024.35 854.444 1024.24L852.977 1021.03C848.977 1012.34 845.112 1004.75 837.837 997.824C830.248 990.598 822.011 984.202 816.04 975.455C803.069 956.456 811.091 935.321 812.658 914.548L812.837 912C813.122 907.687 813.277 901.825 810.46 898.84C807.291 895.479 799.859 894.622 795.653 893.134C784.786 889.289 774.077 884.807 763.877 879.426C754.168 874.305 744.763 868.647 736.006 862.018L731.568 858.679C724.565 853.395 717.303 847.625 712.61 840.433C712.068 839.605 712.988 838.269 713.969 838.665C721.804 841.845 728.963 846.902 736.294 851.302C736.408 851.034 736.54 850.763 736.69 850.491C745.76 834.076 749.491 815.89 748.041 797.22ZM998.326 909.684C1001.45 901.124 1015.68 901.785 1015.11 911.956C1014.67 919.77 1011.36 926.823 1008.32 933.918L1008 934.679C1004.87 942.071 1001.25 949.012 996.92 955.787C988.65 968.738 978.962 980.758 968.615 992.101C959.234 1002.39 946.922 1008.67 932.734 1007.63C926.756 1007.19 920.722 1005.67 915.484 1002.68C909.262 999.134 902.505 988.482 894.567 991.062C893.799 991.311 893.083 990.186 893.747 989.654C902.911 982.274 913.312 993.716 922.085 996.473C935.305 1000.63 948.872 996.034 957.381 985.347C966.265 974.189 974.442 961.695 981.908 949.546C985.7 943.377 989.159 936.974 992.148 930.375C995.163 923.714 995.848 916.476 998.326 909.684ZM977.016 857.001C976.631 855.819 978.099 854.695 979.138 855.37C985.159 859.29 990.377 864.469 995.931 869.01C1002.09 874.047 1008.3 878.981 1014.61 883.839C1023.79 890.924 1013.14 903.965 1005.05 896.226C993.978 885.64 981.854 871.798 977.016 857.001ZM943.956 815.567C946.403 806.134 960.871 810.024 958.763 819.347L958.694 819.631C954.7 835.03 960.388 850.707 972.529 860.69L972.976 861.053C980.658 867.2 969.775 877.947 962.17 871.859C945.566 858.571 938.659 835.998 943.956 815.567Z" fill="black"/>
<path fill-rule="evenodd" clip-rule="evenodd" d="M1062.51 583.224C1059.74 558.944 1063.32 508.195 1063.56 505.112C1065.07 485.62 1055.94 408.65 1038.68 415.742C1009.72 392.816 971.142 387.753 935.072 385.335C860.15 380.311 780.447 391.844 722.595 442.264C693.984 468.449 666.131 506.533 668.369 546.186C642.375 583.773 605.729 635.332 638.117 679.274C649.126 693.313 666.623 698.541 680.454 709.174C708.272 731.611 725.724 763.812 753.807 786.116C828.205 852.971 954.535 866.937 1027.63 790.895C1084.16 735.823 1075.02 653.432 1065.07 583.224C1058.39 536.022 1067.9 630.591 1062.51 583.224Z" fill="#D08B5B"/>
<path fill-rule="evenodd" clip-rule="evenodd" d="M834.987 282.372C855.024 278.329 875.599 275.813 896.061 276.57L897.639 276.632C913.035 277.247 932.533 278.608 945.963 287.561C946.736 286.785 947.979 286.387 949.106 286.925C965.066 294.544 982.621 300.052 999.426 305.525C1016.15 310.971 1033.51 314.567 1051.04 316.016C1057.64 316.561 1063.28 323.684 1059.11 330.073C1058.11 331.595 1057.15 333.133 1056.18 334.675C1057.79 334.506 1059.41 334.333 1061.02 334.17C1066.32 333.636 1071.62 339.298 1071.31 344.463C1071.11 347.712 1070.76 350.923 1070.24 354.094C1072.26 354.052 1074.27 354.355 1076.21 355.175C1086.04 359.325 1085.36 371.03 1084.62 379.936C1083.6 392.295 1078.98 405.385 1070.4 414.635C1076.81 421.291 1081.34 429.239 1084.05 438.678C1086.01 445.571 1087.1 452.914 1086.56 460.089L1086.39 462.238C1085.72 470.024 1084.4 478.645 1078.8 484.247C1075.92 487.135 1072.38 488.188 1069 487.854C1071.04 505.799 1072.35 523.847 1073.59 541.83L1074.16 550.425C1076.91 591.989 1078.98 633.823 1078.44 675.455C1077.94 714.361 1070.25 752.125 1046.39 783.715C1024.65 812.481 993.45 833.686 958.15 841.748C939.127 846.099 919.706 846.407 900.451 843.634C891.118 842.287 881.723 840.22 872.865 836.96C863.06 833.34 856.013 828.013 849.415 820.029C846.294 816.242 847.796 808.181 854.01 808.938C863.408 810.078 871.987 811.451 880.997 814.231L882.287 814.637C891.261 817.513 900.554 819.656 909.936 820.568C929.153 822.429 948.663 820.555 967.071 814.727C997.044 805.229 1022.86 784.062 1039.4 757.465C1059.04 725.939 1061.26 690.152 1060.98 653.903C1060.68 614.125 1059.38 574.325 1057.27 534.589L1056.91 527.967C1055.79 507.519 1054.72 487.058 1053.77 466.597C1053.47 460.179 1053.02 453.71 1052.21 447.304C1044.81 442.966 1038.17 436.984 1033.85 429.603C1025.15 433.197 1016.02 435.79 1007.61 437.857C988.129 442.647 967.907 443.81 948.081 440.811C942.734 443.02 937.28 444.962 931.742 446.633C930.245 447.297 928.749 447.949 927.253 448.588C913.902 454.3 900.36 459.139 886.267 462.682L882.805 463.545C875.389 465.374 867.333 467.174 859.44 467.74C858.143 468.24 856.744 468.664 855.215 469.036C848.028 470.782 840.569 471.334 833.203 470.718C826.026 470.114 820.84 462.862 824.794 456.071C827.682 451.117 830.597 446.175 833.536 441.246C823.306 445.507 812.742 449.05 802.088 452.054C791.331 455.083 780.42 457.638 769.495 459.987C763.655 461.232 757.79 462.336 751.962 463.581C747.791 464.466 741.385 464.928 737.983 467.675C734.223 470.692 733.157 477.726 731.731 482.065C729.857 487.7 728.099 493.361 726.494 499.086C723.299 510.51 720.681 522.101 718.652 533.807C716.624 545.527 715.262 557.362 714.505 569.235C713.749 581.096 714.082 593.034 712.863 604.843C712.207 611.107 705.483 614.329 700.515 609.952C699.932 609.438 699.345 608.919 698.763 608.394L697.896 607.603C693.646 603.752 689.526 599.67 686.126 595.075C685.509 594.227 684.919 593.342 684.367 592.443C684.277 592.443 684.2 592.417 684.11 592.353L683.168 591.644C672.786 583.917 655.442 573.843 645.319 586.68C642.094 590.769 640.442 595.976 639.071 601L636.666 609.991C635.111 615.861 633.647 621.763 632.79 627.768C630.852 641.221 631.827 656.727 641.083 667.509C644.78 671.822 649.876 674.903 655.561 675.711C658.733 676.148 661.865 675.609 665.01 675.211C668.206 674.813 671.286 675.455 674.483 675.147C679.566 674.646 681.787 680.73 679.887 684.556C678.86 686.609 677.652 688.381 676.28 689.883C677.383 690.832 678.437 691.859 679.451 692.938C682.454 693.9 685.149 695.967 687.165 698.701C688.796 700.909 689.641 703.309 689.784 705.838C689.962 706.467 690.116 707.109 690.259 707.763L693.013 712.233C693.618 713.213 694.222 714.181 694.827 715.131C701.836 726.17 709.616 735.515 719.281 744.321C728.588 752.793 738.689 760.379 747.431 769.467L748.461 770.546C756.612 779.135 765.203 789.531 762.013 802.02C761.192 805.229 756.711 807.539 753.785 805.37C744.376 798.387 739.638 787.322 731.656 778.85C723.439 770.122 714.338 762.279 706.099 753.576C698.306 745.361 692.157 736.054 687.525 725.811C685.675 727.852 682.981 729.303 679.245 729.867C672.827 730.83 666.844 727.069 664.047 721.511C662.249 722.307 660.415 723.026 658.565 723.59C648.835 726.568 642.714 715.748 646.385 707.751C648.347 703.463 650.799 699.741 653.843 696.609C644.33 695.299 634.651 690.383 628.4 684.248C612.715 668.831 610.559 645.662 614.089 625.06C615.963 614.136 619.196 603.084 623.395 592.828C624.126 591.044 624.91 589.247 625.769 587.476C625.294 587.463 624.806 587.257 624.498 586.859C621.661 582.983 618.209 579.812 616.103 575.474C614.165 571.494 612.009 567.464 610.481 563.318C607.337 554.833 605.797 545.257 604.77 536.285C602.652 517.916 603.472 499.663 606.285 481.41C611.071 450.321 622.634 420.569 639.669 394.463C638.741 393.976 637.853 393.387 637.024 392.692L636.615 392.335L635.95 391.734C631.089 387.335 631.509 379.09 635.95 374.635L637.353 373.229C639.129 371.464 640.661 370.066 643.53 368.145C643.954 367.861 644.386 367.594 644.824 367.345C643.322 364.57 642.801 361.325 643.847 357.745C647.493 345.273 665.438 345.715 676.812 351.154C689.395 339.923 703.348 330.174 718.472 322.28C754.491 303.488 795.219 290.382 834.987 282.372ZM648.798 610.85C655.525 608.655 664.459 613.263 670.504 616.036C678.168 619.553 684.688 624.752 691.004 630.246C694.149 632.993 694.712 637.485 693.93 641.323C693.852 641.708 693.776 642.106 693.685 642.504C692.851 646.599 688.281 649.821 684.238 649.705C675.779 649.474 671.749 642.171 666.96 635.983C666.397 636.985 665.691 637.909 664.817 638.602L664.226 639.064C662.239 640.577 660.049 641.787 657.423 641.67C655.562 641.58 653.779 641.105 652.134 640.245C648.027 638.076 646.218 632.762 647.334 628.436C648.027 625.715 649.619 623.584 651.698 622.108L650.923 621.577C649.264 620.423 647.752 619.206 646.573 617.411L646.307 616.986H646.41C645.126 614.778 645.962 611.774 648.798 610.85Z" fill="black"/>
<path fill-rule="evenodd" clip-rule="evenodd" d="M1065.66 646.625C1046.4 655.903 1019.52 642.218 1006.57 627.884C1001.85 622.665 998.214 607.732 1000.03 598.262C1004.94 572.614 1023.4 557.221 1042.89 551.964C1069.9 544.676 1097.08 563.139 1093.91 584.928C1090.91 605.577 1086.35 635.53 1065.66 646.625M934.537 597.357C932.993 625.308 910.547 649.772 883.719 657.021C840.494 669.082 819.132 638.697 809.456 605.964C808.495 602.711 806.235 592.783 812.3 584.268C836.153 550.772 894.189 556.481 923.176 565.677C931.661 573.791 935.129 585.501 934.537 597.357M1086.59 549.148C1086.58 549.165 1086.56 549.179 1086.55 549.195C1086.45 549.135 1086.35 549.074 1086.25 549.014C1086.36 549.061 1086.48 549.1 1086.59 549.148M1122.76 552.379C1120.24 523.921 1030.95 534.818 1020.51 537.15C992.022 545.529 967.413 568.327 935.559 558.305C902.553 521.513 791.406 532.064 768.106 550.806C763.695 549.076 758.332 550.004 752.65 551.637C723.468 550.583 590.249 560.643 617.498 597.887C621.634 600.756 625.765 597.837 625.88 591.927C767.929 540.65 754.159 588.68 771.006 583.07C773.578 583.811 776.262 584.279 778.61 584.772C791.649 588.967 796.076 587.671 797.793 602.308C809.594 715.332 960.105 676.322 947.76 583.614C959.983 582.942 970.674 577.657 983.599 582.817C992.572 670.151 1062.85 673.676 1084 643.402C1099.95 622.389 1093.63 590.678 1115.55 574.148C1124.2 581.39 1124.76 556.947 1122.76 552.379" fill="black"/>
<path fill-rule="evenodd" clip-rule="evenodd" d="M944.489 760.265C935.86 756.745 928.161 750.873 922.532 743.372C920.575 740.765 920.068 738.011 920.478 735.493C920.94 732.661 922.615 730.094 924.9 728.373C927.192 726.646 930.059 725.794 932.831 726.228C935.239 726.605 937.637 727.924 939.534 730.659L939.93 731.206C943.277 735.733 947.638 739.448 952.606 741.842C957.395 744.15 962.751 745.227 968.294 744.6C978.85 743.408 986.126 737.699 993.86 729.946C994.818 728.968 995.777 727.958 996.741 726.932C997.35 726.002 998.195 725.405 999.132 725.091C1000.17 724.743 1001.35 724.763 1002.43 725.139C1003.47 725.503 1004.4 726.191 1005.03 727.107C1005.62 727.977 1005.95 729.053 1005.85 730.29C1005.14 738.324 1000.94 745.494 994.971 751.124C988.344 757.378 979.56 761.703 971.29 763.221C962.179 764.892 952.895 763.695 944.489 760.265V760.265ZM975.588 636.32C985.281 642.212 1000.05 655.95 989.623 670.557C977.349 683.436 959.677 668.669 950.968 661.991C942.893 656.815 933.82 670.127 941.312 676.171C1004.24 722.76 1029.78 637.86 980.491 629.392C975.064 628.459 973.048 634.497 975.588 636.32ZM862.821 582.124C863.892 568.831 884.138 565.812 886.152 578.967C887.955 590.75 885.832 601.575 880.524 612.184C875.453 622.32 862.706 617.591 861.742 608.362C860.45 595.99 862.155 590.394 862.821 582.124ZM1016.94 576.239C1019.76 572.542 1023.83 570.019 1028.72 571.445C1043.97 575.903 1039.48 597.561 1034.12 608.104C1031.21 613.829 1021.8 615.28 1017.55 610.24C1010.61 602.019 1007.29 585.603 1016.11 577.506C1016.35 577.088 1016.61 576.665 1016.94 576.239ZM880.31 523.956L882.719 523.534C890.174 522.245 899.444 521.006 904.718 526.999C907.515 530.178 908.477 536.085 904.718 539.127C898.104 544.48 890.793 542.405 882.868 542.859C876.337 543.233 870.06 544.314 863.769 546.113C849.967 550.057 838.722 557.258 826.934 565.165C825.387 566.202 823.809 564.224 824.547 562.778C831.351 549.45 844.538 538.502 857.746 531.828C864.796 528.266 872.51 525.312 880.31 523.956ZM1003.03 517.986L1004.87 518.363C1024.95 522.559 1051.03 530.94 1060.53 550.656C1060.89 553.444 1060.51 554.041 1060.2 554.431L1060.1 554.561C1059.84 554.895 1059.63 555.354 1058.43 555.734C1058.09 555.654 1057.75 555.569 1057.41 555.479C1053.05 554.338 1049.61 552.765 1046.27 551.132L1042.65 549.35C1038.45 547.291 1034.22 545.308 1029.73 543.844C1020.15 540.719 1010.3 538.518 1000.29 537.343C998.123 537.089 996.035 536.357 994.388 535.103C992.824 533.912 991.63 532.264 991.085 530.072C990.379 527.237 990.582 525.09 992.103 522.532C993.247 520.611 994.884 519.279 996.764 518.515C998.68 517.735 1000.86 517.551 1003.03 517.986Z" fill="black"/>
</g>
</svg>
